<?xml version="1.0" encoding="UTF-8"?>
<svg id="Layer_2" data-name="Layer 2" xmlns="http://www.w3.org/2000/svg" xmlns:xlink="http://www.w3.org/1999/xlink" viewBox="0 0 497.65 414.8">
  <defs>
    <style>
      .cls-1 {
        opacity: .5;
      }

      .cls-1, .cls-2 {
        fill: none;
      }

      .cls-3 {
        fill: url(#linear-gradient);
      }

      .cls-2 {
        isolation: isolate;
      }

      .cls-4 {
        fill: #fff;
      }

      .cls-5 {
        fill: #3dc1ef;
      }

      .cls-6 {
        fill: url(#linear-gradient-2);
      }
    </style>
    <linearGradient id="linear-gradient" x1="213.72" y1="35.57" x2="263.62" y2="284.82" gradientUnits="userSpaceOnUse">
      <stop offset=".08" stop-color="#231f20"/>
      <stop offset=".76" stop-color="#503b79"/>
    </linearGradient>
    <linearGradient id="linear-gradient-2" x1="209.72" y1="4.85" x2="303.88" y2="391.42" gradientUnits="userSpaceOnUse">
      <stop offset="0" stop-color="#38C1F0"/>
      <stop offset=".06" stop-color="#38C1F0"/>
      <stop offset=".16" stop-color="#38C1F0"/>
      <stop offset=".26" stop-color="#38C1F0"/>
      <stop offset=".34" stop-color="#38C1F0"/>
      <stop offset=".42" stop-color="#38C1F0"/>
      <stop offset=".47" stop-color="#38C1F0"/>
      <stop offset=".55" stop-color="#38C1F0"/>
      <stop offset=".68" stop-color="#38C1F0"/>
      <stop offset=".86" stop-color="#38C1F0"/>
      <stop offset="1" stop-color="#38C1F0"/>
    </linearGradient>
  </defs>
  <g id="Logo">
    <g>
      <g>
        <g>
          <g class="cls-2">
            <g>
              <path class="cls-3" d="m47.6,117.29c3.28-5.99,7.51-10.98,12.7-15,5.19-4.01,11.35-6.71,18.48-8.1,6.34-1.23,12.31-1.47,17.89-.7s10.62,2.79,15.13,6.07c4.5,3.28,8.39,7.9,11.64,13.85,3.25,5.95,5.76,13.44,7.52,22.49l15.77,81.12-34.38,6.68-15.81-81.36c-.8-4.12-1.93-7.48-3.38-10.08-1.45-2.6-3.21-4.58-5.29-5.95-2.08-1.36-4.47-2.15-7.19-2.37-2.72-.21-5.7,0-8.95.63-5.39,1.05-9.67,2.97-12.83,5.77-3.16,2.79-5.43,6.18-6.79,10.15l17.78,91.47-34.38,6.68L0,55.94l34.38-6.68,13.22,68.04Z"/>
              <path class="cls-3" d="m142.87,149.75c-1.82-9.36-2.16-18.3-1.02-26.84,1.14-8.53,3.72-16.21,7.74-23.04,4.02-6.83,9.49-12.65,16.42-17.45,6.92-4.8,15.22-8.14,24.9-10.02,9.75-1.9,18.76-1.92,27.02-.07,8.26,1.85,15.55,5.19,21.88,10,6.32,4.82,11.62,10.97,15.87,18.46,4.25,7.49,7.29,15.91,9.11,25.26l.48,2.5c1.84,9.44,2.18,18.4,1.03,26.89-1.15,8.49-3.75,16.16-7.81,23-4.06,6.84-9.54,12.64-16.43,17.39-6.89,4.75-15.22,8.08-24.97,9.98-9.75,1.9-18.74,1.93-26.95.12-8.21-1.82-15.48-5.14-21.81-9.96-6.33-4.82-11.61-10.95-15.86-18.4-4.25-7.45-7.29-15.89-9.12-25.32l-.49-2.5Zm34.86-4.18c1.02,5.23,2.45,10.06,4.29,14.47,1.84,4.41,4.14,8.1,6.9,11.06,2.76,2.96,6.01,5.11,9.77,6.43,3.76,1.33,8.09,1.51,13.01.56,4.76-.92,8.63-2.7,11.61-5.34,2.98-2.64,5.22-5.85,6.71-9.64,1.48-3.79,2.26-8.07,2.31-12.85.06-4.78-.42-9.79-1.44-15.03l-.48-2.5c-.99-5.07-2.4-9.8-4.24-14.17-1.84-4.37-4.16-8.08-6.97-11.11-2.81-3.03-6.12-5.23-9.92-6.59-3.8-1.36-8.12-1.57-12.96-.63-4.76.92-8.63,2.73-11.6,5.4-2.98,2.68-5.18,5.95-6.61,9.8-1.43,3.86-2.18,8.16-2.24,12.9-.07,4.75.39,9.66,1.38,14.73l.49,2.5Z"/>
              <path class="cls-3" d="m323.29,182.7l-34.49,6.7L253.28,6.7l34.49-6.7,35.51,182.7Z"/>
              <path class="cls-3" d="m321.81,114.97c-1.82-9.36-2.16-18.3-1.02-26.84,1.14-8.53,3.72-16.21,7.74-23.04,4.02-6.83,9.49-12.65,16.42-17.45,6.92-4.8,15.22-8.14,24.9-10.02,9.75-1.9,18.76-1.92,27.02-.07,8.26,1.85,15.55,5.19,21.88,10,6.32,4.82,11.62,10.97,15.87,18.46,4.25,7.49,7.29,15.91,9.11,25.26l.48,2.5c1.84,9.44,2.18,18.4,1.03,26.89-1.15,8.49-3.75,16.16-7.81,23-4.06,6.84-9.54,12.64-16.43,17.39-6.89,4.75-15.22,8.08-24.97,9.98s-18.74,1.93-26.95.12c-8.21-1.82-15.48-5.14-21.81-9.96-6.33-4.82-11.61-10.95-15.86-18.4-4.25-7.45-7.29-15.88-9.12-25.32l-.49-2.5Zm34.86-4.18c1.02,5.23,2.45,10.06,4.29,14.47,1.84,4.41,4.14,8.1,6.9,11.06,2.76,2.96,6.01,5.11,9.77,6.43,3.76,1.33,8.09,1.51,13.01.56,4.76-.92,8.63-2.7,11.61-5.34,2.99-2.64,5.22-5.85,6.71-9.64,1.48-3.79,2.26-8.07,2.31-12.85.06-4.78-.42-9.79-1.44-15.03l-.48-2.5c-.99-5.07-2.4-9.8-4.24-14.17-1.84-4.37-4.16-8.08-6.97-11.11-2.81-3.03-6.12-5.23-9.92-6.59-3.8-1.36-8.12-1.57-12.96-.63-4.76.92-8.63,2.73-11.6,5.4-2.98,2.68-5.18,5.95-6.61,9.8-1.43,3.86-2.18,8.16-2.24,12.9-.07,4.75.4,9.66,1.38,14.73l.48,2.5Z"/>
            </g>
            <g>
              <path class="cls-5" d="m47.6,117.29c3.28-5.99,7.51-10.98,12.7-15,5.19-4.01,11.35-6.71,18.48-8.1,6.34-1.23,12.31-1.47,17.89-.7s10.62,2.79,15.13,6.07c4.5,3.28,8.39,7.9,11.64,13.85,3.25,5.95,5.76,13.44,7.52,22.49l15.77,81.12-34.38,6.68-15.81-81.36c-.8-4.12-1.93-7.48-3.38-10.08-1.45-2.6-3.21-4.58-5.29-5.95-2.08-1.36-4.47-2.15-7.19-2.37-2.72-.21-5.7,0-8.95.63-5.39,1.05-9.67,2.97-12.83,5.77-3.16,2.79-5.43,6.18-6.79,10.15l17.78,91.47-34.38,6.68L0,55.94l34.38-6.68,13.22,68.04Z"/>
              <path class="cls-5" d="m142.87,149.75c-1.82-9.36-2.16-18.3-1.02-26.84,1.14-8.53,3.72-16.21,7.74-23.04,4.02-6.83,9.49-12.65,16.42-17.45,6.92-4.8,15.22-8.14,24.9-10.02,9.75-1.9,18.76-1.92,27.02-.07,8.26,1.85,15.55,5.19,21.88,10,6.32,4.82,11.62,10.97,15.87,18.46,4.25,7.49,7.29,15.91,9.11,25.26l.48,2.5c1.84,9.44,2.18,18.4,1.03,26.89-1.15,8.49-3.75,16.16-7.81,23-4.06,6.84-9.54,12.64-16.43,17.39-6.89,4.75-15.22,8.08-24.97,9.98-9.75,1.9-18.74,1.93-26.95.12-8.21-1.82-15.48-5.14-21.81-9.96-6.33-4.82-11.61-10.95-15.86-18.4-4.25-7.45-7.29-15.89-9.12-25.32l-.49-2.5Zm34.86-4.18c1.02,5.23,2.45,10.06,4.29,14.47,1.84,4.41,4.14,8.1,6.9,11.06,2.76,2.96,6.01,5.11,9.77,6.43,3.76,1.33,8.09,1.51,13.01.56,4.76-.92,8.63-2.7,11.61-5.34,2.98-2.64,5.22-5.85,6.71-9.64,1.48-3.79,2.26-8.07,2.31-12.85.06-4.78-.42-9.79-1.44-15.03l-.48-2.5c-.99-5.07-2.4-9.8-4.24-14.17-1.84-4.37-4.16-8.08-6.97-11.11-2.81-3.03-6.12-5.23-9.92-6.59-3.8-1.36-8.12-1.57-12.96-.63-4.76.92-8.63,2.73-11.6,5.4-2.98,2.68-5.18,5.95-6.61,9.8-1.43,3.86-2.18,8.16-2.24,12.9-.07,4.75.39,9.66,1.38,14.73l.49,2.5Z"/>
              <path class="cls-5" d="m323.29,182.7l-34.49,6.7L253.28,6.7l34.49-6.7,35.51,182.7Z"/>
              <path class="cls-5" d="m321.81,114.97c-1.82-9.36-2.16-18.3-1.02-26.84,1.14-8.53,3.72-16.21,7.74-23.04,4.02-6.83,9.49-12.65,16.42-17.45,6.92-4.8,15.22-8.14,24.9-10.02,9.75-1.9,18.76-1.92,27.02-.07,8.26,1.85,15.55,5.19,21.88,10,6.32,4.82,11.62,10.97,15.87,18.46,4.25,7.49,7.29,15.91,9.11,25.26l.48,2.5c1.84,9.44,2.18,18.4,1.03,26.89-1.15,8.49-3.75,16.16-7.81,23-4.06,6.84-9.54,12.64-16.43,17.39-6.89,4.75-15.22,8.08-24.97,9.98s-18.74,1.93-26.95.12c-8.21-1.82-15.48-5.14-21.81-9.96-6.33-4.82-11.61-10.95-15.86-18.4-4.25-7.45-7.29-15.88-9.12-25.32l-.49-2.5Zm34.86-4.18c1.02,5.23,2.45,10.06,4.29,14.47,1.84,4.41,4.14,8.1,6.9,11.06,2.76,2.96,6.01,5.11,9.77,6.43,3.76,1.33,8.09,1.51,13.01.56,4.76-.92,8.63-2.7,11.61-5.34,2.99-2.64,5.22-5.85,6.71-9.64,1.48-3.79,2.26-8.07,2.31-12.85.06-4.78-.42-9.79-1.44-15.03l-.48-2.5c-.99-5.07-2.4-9.8-4.24-14.17-1.84-4.37-4.16-8.08-6.97-11.11-2.81-3.03-6.12-5.23-9.92-6.59-3.8-1.36-8.12-1.57-12.96-.63-4.76.92-8.63,2.73-11.6,5.4-2.98,2.68-5.18,5.95-6.61,9.8-1.43,3.86-2.18,8.16-2.24,12.9-.07,4.75.4,9.66,1.38,14.73l.48,2.5Z"/>
            </g>
          </g>
          <g class="cls-2">
            <path class="cls-5" d="m244.12,279.64c1.82,9.36,2.42,18.25,1.79,26.68-.63,8.43-2.47,15.97-5.54,22.62-3.07,6.65-7.39,12.24-12.97,16.78-5.58,4.54-12.41,7.6-20.5,9.17-6.82,1.33-13.06,1.3-18.71-.07-5.66-1.37-10.8-3.83-15.44-7.37l11.79,60.66-34.38,6.68-34.63-178.18,31.88-6.2,3.64,12.38c3.04-5.53,6.94-10.11,11.71-13.76,4.76-3.64,10.75-6.16,17.97-7.57,8.17-1.59,15.69-1.42,22.56.49,6.87,1.92,12.97,5.34,18.29,10.27,5.32,4.93,9.85,11.21,13.6,18.84,3.74,7.62,6.57,16.31,8.46,26.07l.49,2.5Zm-34.86,4.18c-1.03-5.31-2.45-10.16-4.25-14.54-1.8-4.38-4.02-8.06-6.65-11.05-2.64-2.98-5.71-5.12-9.21-6.42-3.5-1.29-7.51-1.5-12.03-.62-5.63,1.09-10.04,3.04-13.24,5.85-3.2,2.8-5.4,6.42-6.59,10.85l10.24,52.69c2.75,3.58,6.15,6.15,10.2,7.71,4.05,1.56,8.96,1.77,14.75.65,4.52-.88,8.15-2.61,10.9-5.2,2.75-2.59,4.76-5.8,6.03-9.63,1.27-3.83,1.9-8.12,1.88-12.89-.02-4.77-.53-9.73-1.54-14.88l-.49-2.5Z"/>
            <path class="cls-5" d="m247.91,276.43c-1.82-9.36-2.16-18.3-1.02-26.84,1.14-8.53,3.72-16.21,7.74-23.04,4.02-6.83,9.49-12.64,16.42-17.45,6.92-4.8,15.22-8.14,24.9-10.02,9.75-1.9,18.76-1.92,27.02-.07,8.26,1.85,15.55,5.19,21.88,10,6.33,4.82,11.62,10.97,15.87,18.46,4.25,7.49,7.29,15.91,9.11,25.26l.49,2.5c1.83,9.44,2.18,18.4,1.03,26.89-1.15,8.49-3.75,16.16-7.81,23-4.06,6.84-9.54,12.64-16.43,17.39-6.89,4.76-15.22,8.08-24.97,9.98-9.75,1.9-18.74,1.93-26.95.12-8.21-1.82-15.48-5.14-21.81-9.96-6.33-4.82-11.61-10.95-15.86-18.4-4.25-7.45-7.28-15.88-9.12-25.32l-.49-2.5Zm34.86-4.18c1.02,5.23,2.45,10.06,4.29,14.47,1.84,4.42,4.14,8.1,6.9,11.06,2.76,2.96,6.01,5.11,9.77,6.43,3.75,1.33,8.09,1.51,13.01.56,4.76-.92,8.63-2.7,11.61-5.34,2.98-2.64,5.22-5.85,6.71-9.64,1.49-3.79,2.26-8.07,2.32-12.86.06-4.78-.42-9.79-1.44-15.03l-.49-2.5c-.99-5.07-2.4-9.8-4.24-14.18-1.84-4.37-4.16-8.08-6.97-11.11s-6.12-5.23-9.92-6.59c-3.8-1.36-8.12-1.57-12.96-.63-4.76.92-8.63,2.72-11.6,5.4-2.98,2.68-5.18,5.95-6.61,9.8-1.43,3.86-2.18,8.16-2.24,12.9-.07,4.75.4,9.66,1.38,14.73l.49,2.5Z"/>
            <path class="cls-5" d="m495.62,230.75c1.82,9.36,2.42,18.25,1.79,26.68-.63,8.43-2.47,15.97-5.54,22.62-3.07,6.65-7.39,12.24-12.97,16.78-5.58,4.54-12.41,7.6-20.5,9.17-6.82,1.33-13.06,1.3-18.71-.06-5.66-1.37-10.8-3.83-15.44-7.37l11.79,60.66-34.38,6.68-34.63-178.18,31.88-6.2,3.64,12.38c3.04-5.53,6.94-10.11,11.71-13.76,4.76-3.64,10.75-6.16,17.97-7.57,8.17-1.59,15.69-1.42,22.56.49,6.87,1.92,12.97,5.34,18.29,10.27,5.32,4.93,9.85,11.21,13.6,18.84,3.74,7.62,6.57,16.31,8.46,26.07l.49,2.5Zm-34.86,4.18c-1.03-5.31-2.45-10.16-4.25-14.54-1.8-4.38-4.02-8.06-6.65-11.05-2.64-2.99-5.71-5.12-9.21-6.42-3.5-1.29-7.51-1.5-12.03-.62-5.63,1.09-10.04,3.04-13.24,5.85-3.2,2.8-5.4,6.42-6.59,10.85l10.24,52.69c2.75,3.58,6.15,6.15,10.2,7.71s8.97,1.78,14.75.65c4.52-.88,8.15-2.61,10.9-5.21,2.75-2.59,4.76-5.8,6.03-9.63s1.9-8.12,1.88-12.89c-.02-4.77-.53-9.73-1.54-14.88l-.49-2.5Z"/>
          </g>
        </g>
        <g>
          <g>
            <g>
              <path class="cls-6" d="m47.6,117.29c3.28-5.99,7.51-10.98,12.7-15,5.19-4.01,11.35-6.71,18.48-8.1,6.34-1.23,12.31-1.47,17.89-.7s10.62,2.79,15.13,6.07c4.5,3.28,8.39,7.9,11.64,13.85,3.25,5.95,5.76,13.44,7.52,22.49l15.77,81.12-34.38,6.68-15.81-81.36c-.8-4.12-1.93-7.48-3.38-10.08-1.45-2.6-3.21-4.58-5.29-5.95-2.08-1.36-4.47-2.15-7.19-2.37-2.72-.21-5.7,0-8.95.63-5.39,1.05-9.67,2.97-12.83,5.77-3.16,2.79-5.43,6.18-6.79,10.15l17.78,91.47-34.38,6.68L0,55.94l34.38-6.68,13.22,68.04Z"/>
              <path class="cls-6" d="m142.87,149.75c-1.82-9.36-2.16-18.3-1.02-26.84,1.14-8.53,3.72-16.21,7.74-23.04,4.02-6.83,9.49-12.65,16.42-17.45,6.92-4.8,15.22-8.14,24.9-10.02,9.75-1.9,18.76-1.92,27.02-.07,8.26,1.85,15.55,5.19,21.88,10,6.32,4.82,11.62,10.97,15.87,18.46,4.25,7.49,7.29,15.91,9.11,25.26l.48,2.5c1.84,9.44,2.18,18.4,1.03,26.89-1.15,8.49-3.75,16.16-7.81,23-4.06,6.84-9.54,12.64-16.43,17.39-6.89,4.75-15.22,8.08-24.97,9.98-9.75,1.9-18.74,1.93-26.95.12-8.21-1.82-15.48-5.14-21.81-9.96-6.33-4.82-11.61-10.95-15.86-18.4-4.25-7.45-7.29-15.89-9.12-25.32l-.49-2.5Zm34.86-4.18c1.02,5.23,2.45,10.06,4.29,14.47,1.84,4.41,4.14,8.1,6.9,11.06,2.76,2.96,6.01,5.11,9.77,6.43,3.76,1.33,8.09,1.51,13.01.56,4.76-.92,8.63-2.7,11.61-5.34,2.98-2.64,5.22-5.85,6.71-9.64,1.48-3.79,2.26-8.07,2.31-12.85.06-4.78-.42-9.79-1.44-15.03l-.48-2.5c-.99-5.07-2.4-9.8-4.24-14.17-1.84-4.37-4.16-8.08-6.97-11.11-2.81-3.03-6.12-5.23-9.92-6.59-3.8-1.36-8.12-1.57-12.96-.63-4.76.92-8.63,2.73-11.6,5.4-2.98,2.68-5.18,5.95-6.61,9.8-1.43,3.86-2.18,8.16-2.24,12.9-.07,4.75.39,9.66,1.38,14.73l.49,2.5Z"/>
              <path class="cls-6" d="m323.29,182.7l-34.49,6.7L253.28,6.7l34.49-6.7,35.51,182.7Z"/>
              <path class="cls-6" d="m321.81,114.97c-1.82-9.36-2.16-18.3-1.02-26.84,1.14-8.53,3.72-16.21,7.74-23.04,4.02-6.83,9.49-12.65,16.42-17.45,6.92-4.8,15.22-8.14,24.9-10.02,9.75-1.9,18.76-1.92,27.02-.07,8.26,1.85,15.55,5.19,21.88,10,6.32,4.82,11.62,10.97,15.87,18.46,4.25,7.49,7.29,15.91,9.11,25.26l.48,2.5c1.84,9.44,2.18,18.4,1.03,26.89-1.15,8.49-3.75,16.16-7.81,23-4.06,6.84-9.54,12.64-16.43,17.39-6.89,4.75-15.22,8.08-24.97,9.98s-18.74,1.93-26.95.12c-8.21-1.82-15.48-5.14-21.81-9.96-6.33-4.82-11.61-10.95-15.86-18.4-4.25-7.45-7.29-15.88-9.12-25.32l-.49-2.5Zm34.86-4.18c1.02,5.23,2.45,10.06,4.29,14.47,1.84,4.41,4.14,8.1,6.9,11.06,2.76,2.96,6.01,5.11,9.77,6.43,3.76,1.33,8.09,1.51,13.01.56,4.76-.92,8.63-2.7,11.61-5.34,2.99-2.64,5.22-5.85,6.71-9.64,1.48-3.79,2.26-8.07,2.31-12.85.06-4.78-.42-9.79-1.44-15.03l-.48-2.5c-.99-5.07-2.4-9.8-4.24-14.17-1.84-4.37-4.16-8.08-6.97-11.11-2.81-3.03-6.12-5.23-9.92-6.59-3.8-1.36-8.12-1.57-12.96-.63-4.76.92-8.63,2.73-11.6,5.4-2.98,2.68-5.18,5.95-6.61,9.8-1.43,3.86-2.18,8.16-2.24,12.9-.07,4.75.4,9.66,1.38,14.73l.48,2.5Z"/>
            </g>
            <g>
              <path class="cls-6" d="m47.6,117.29c3.28-5.99,7.51-10.98,12.7-15,5.19-4.01,11.35-6.71,18.48-8.1,6.34-1.23,12.31-1.47,17.89-.7s10.62,2.79,15.13,6.07c4.5,3.28,8.39,7.9,11.64,13.85,3.25,5.95,5.76,13.44,7.52,22.49l15.77,81.12-34.38,6.68-15.81-81.36c-.8-4.12-1.93-7.48-3.38-10.08-1.45-2.6-3.21-4.58-5.29-5.95-2.08-1.36-4.47-2.15-7.19-2.37-2.72-.21-5.7,0-8.95.63-5.39,1.05-9.67,2.97-12.83,5.77-3.16,2.79-5.43,6.18-6.79,10.15l17.78,91.47-34.38,6.68L0,55.94l34.38-6.68,13.22,68.04Z"/>
              <path class="cls-6" d="m142.87,149.75c-1.82-9.36-2.16-18.3-1.02-26.84,1.14-8.53,3.72-16.21,7.74-23.04,4.02-6.83,9.49-12.65,16.42-17.45,6.92-4.8,15.22-8.14,24.9-10.02,9.75-1.9,18.76-1.92,27.02-.07,8.26,1.85,15.55,5.19,21.88,10,6.32,4.82,11.62,10.97,15.87,18.46,4.25,7.49,7.29,15.91,9.11,25.26l.48,2.5c1.84,9.44,2.18,18.4,1.03,26.89-1.15,8.49-3.75,16.16-7.81,23-4.06,6.84-9.54,12.64-16.43,17.39-6.89,4.75-15.22,8.08-24.97,9.98-9.75,1.9-18.74,1.93-26.95.12-8.21-1.82-15.48-5.14-21.81-9.96-6.33-4.82-11.61-10.95-15.86-18.4-4.25-7.45-7.29-15.89-9.12-25.32l-.49-2.5Zm34.86-4.18c1.02,5.23,2.45,10.06,4.29,14.47,1.84,4.41,4.14,8.1,6.9,11.06,2.76,2.96,6.01,5.11,9.77,6.43,3.76,1.33,8.09,1.51,13.01.56,4.76-.92,8.63-2.7,11.61-5.34,2.98-2.64,5.22-5.85,6.71-9.64,1.48-3.79,2.26-8.07,2.31-12.85.06-4.78-.42-9.79-1.44-15.03l-.48-2.5c-.99-5.07-2.4-9.8-4.24-14.17-1.84-4.37-4.16-8.08-6.97-11.11-2.81-3.03-6.12-5.23-9.92-6.59-3.8-1.36-8.12-1.57-12.96-.63-4.76.92-8.63,2.73-11.6,5.4-2.98,2.68-5.18,5.95-6.61,9.8-1.43,3.86-2.18,8.16-2.24,12.9-.07,4.75.39,9.66,1.38,14.73l.49,2.5Z"/>
              <path class="cls-6" d="m323.29,182.7l-34.49,6.7L253.28,6.7l34.49-6.7,35.51,182.7Z"/>
              <path class="cls-6" d="m321.81,114.97c-1.82-9.36-2.16-18.3-1.02-26.84,1.14-8.53,3.72-16.21,7.74-23.04,4.02-6.83,9.49-12.65,16.42-17.45,6.92-4.8,15.22-8.14,24.9-10.02,9.75-1.9,18.76-1.92,27.02-.07,8.26,1.85,15.55,5.19,21.88,10,6.32,4.82,11.62,10.97,15.87,18.46,4.25,7.49,7.29,15.91,9.11,25.26l.48,2.5c1.84,9.44,2.18,18.4,1.03,26.89-1.15,8.49-3.75,16.16-7.81,23-4.06,6.84-9.54,12.64-16.43,17.39-6.89,4.75-15.22,8.08-24.97,9.98s-18.74,1.93-26.95.12c-8.21-1.82-15.48-5.14-21.81-9.96-6.33-4.82-11.61-10.95-15.86-18.4-4.25-7.45-7.29-15.88-9.12-25.32l-.49-2.5Zm34.86-4.18c1.02,5.23,2.45,10.06,4.29,14.47,1.84,4.41,4.14,8.1,6.9,11.06,2.76,2.96,6.01,5.11,9.77,6.43,3.76,1.33,8.09,1.51,13.01.56,4.76-.92,8.63-2.7,11.61-5.34,2.99-2.64,5.22-5.85,6.71-9.64,1.48-3.79,2.26-8.07,2.31-12.85.06-4.78-.42-9.79-1.44-15.03l-.48-2.5c-.99-5.07-2.4-9.8-4.24-14.17-1.84-4.37-4.16-8.08-6.97-11.11-2.81-3.03-6.12-5.23-9.92-6.59-3.8-1.36-8.12-1.57-12.96-.63-4.76.92-8.63,2.73-11.6,5.4-2.98,2.68-5.18,5.95-6.61,9.8-1.43,3.86-2.18,8.16-2.24,12.9-.07,4.75.4,9.66,1.38,14.73l.48,2.5Z"/>
            </g>
            <g>
              <path class="cls-6" d="m47.6,117.29c3.28-5.99,7.51-10.98,12.7-15,5.19-4.01,11.35-6.71,18.48-8.1,6.34-1.23,12.31-1.47,17.89-.7s10.62,2.79,15.13,6.07c4.5,3.28,8.39,7.9,11.64,13.85,3.25,5.95,5.76,13.44,7.52,22.49l15.77,81.12-34.38,6.68-15.81-81.36c-.8-4.12-1.93-7.48-3.38-10.08-1.45-2.6-3.21-4.58-5.29-5.95-2.08-1.36-4.47-2.15-7.19-2.37-2.72-.21-5.7,0-8.95.63-5.39,1.05-9.67,2.97-12.83,5.77-3.16,2.79-5.43,6.18-6.79,10.15l17.78,91.47-34.38,6.68L0,55.94l34.38-6.68,13.22,68.04Z"/>
              <path class="cls-6" d="m142.87,149.75c-1.82-9.36-2.16-18.3-1.02-26.84,1.14-8.53,3.72-16.21,7.74-23.04,4.02-6.83,9.49-12.65,16.42-17.45,6.92-4.8,15.22-8.14,24.9-10.02,9.75-1.9,18.76-1.92,27.02-.07,8.26,1.85,15.55,5.19,21.88,10,6.32,4.82,11.62,10.97,15.87,18.46,4.25,7.49,7.29,15.91,9.11,25.26l.48,2.5c1.84,9.44,2.18,18.4,1.03,26.89-1.15,8.49-3.75,16.16-7.81,23-4.06,6.84-9.54,12.64-16.43,17.39-6.89,4.75-15.22,8.08-24.97,9.98-9.75,1.9-18.74,1.93-26.95.12-8.21-1.82-15.48-5.14-21.81-9.96-6.33-4.82-11.61-10.95-15.86-18.4-4.25-7.45-7.29-15.89-9.12-25.32l-.49-2.5Zm34.86-4.18c1.02,5.23,2.45,10.06,4.29,14.47,1.84,4.41,4.14,8.1,6.9,11.06,2.76,2.96,6.01,5.11,9.77,6.43,3.76,1.33,8.09,1.51,13.01.56,4.76-.92,8.63-2.7,11.61-5.34,2.98-2.64,5.22-5.85,6.71-9.64,1.48-3.79,2.26-8.07,2.31-12.85.06-4.78-.42-9.79-1.44-15.03l-.48-2.5c-.99-5.07-2.4-9.8-4.24-14.17-1.84-4.37-4.16-8.08-6.97-11.11-2.81-3.03-6.12-5.23-9.92-6.59-3.8-1.36-8.12-1.57-12.96-.63-4.76.92-8.63,2.73-11.6,5.4-2.98,2.68-5.18,5.95-6.61,9.8-1.43,3.86-2.18,8.16-2.24,12.9-.07,4.75.39,9.66,1.38,14.73l.49,2.5Z"/>
              <path class="cls-6" d="m323.29,182.7l-34.49,6.7L253.28,6.7l34.49-6.7,35.51,182.7Z"/>
              <path class="cls-6" d="m321.81,114.97c-1.82-9.36-2.16-18.3-1.02-26.84,1.14-8.53,3.72-16.21,7.74-23.04,4.02-6.83,9.49-12.65,16.42-17.45,6.92-4.8,15.22-8.14,24.9-10.02,9.75-1.9,18.76-1.92,27.02-.07,8.26,1.85,15.55,5.19,21.88,10,6.32,4.82,11.62,10.97,15.87,18.46,4.25,7.49,7.29,15.91,9.11,25.26l.48,2.5c1.84,9.44,2.18,18.4,1.03,26.89-1.15,8.49-3.75,16.16-7.81,23-4.06,6.84-9.54,12.64-16.43,17.39-6.89,4.75-15.22,8.08-24.97,9.98s-18.74,1.93-26.95.12c-8.21-1.82-15.48-5.14-21.81-9.96-6.33-4.82-11.61-10.95-15.86-18.4-4.25-7.45-7.29-15.88-9.12-25.32l-.49-2.5Zm34.86-4.18c1.02,5.23,2.45,10.06,4.29,14.47,1.84,4.41,4.14,8.1,6.9,11.06,2.76,2.96,6.01,5.11,9.77,6.43,3.76,1.33,8.09,1.51,13.01.56,4.76-.92,8.63-2.7,11.61-5.34,2.99-2.64,5.22-5.85,6.71-9.64,1.48-3.79,2.26-8.07,2.31-12.85.06-4.78-.42-9.79-1.44-15.03l-.48-2.5c-.99-5.07-2.4-9.8-4.24-14.17-1.84-4.37-4.16-8.08-6.97-11.11-2.81-3.03-6.12-5.23-9.92-6.59-3.8-1.36-8.12-1.57-12.96-.63-4.76.92-8.63,2.73-11.6,5.4-2.98,2.68-5.18,5.95-6.61,9.8-1.43,3.86-2.18,8.16-2.24,12.9-.07,4.75.4,9.66,1.38,14.73l.48,2.5Z"/>
            </g>
          </g>
          <g>
            <path class="cls-6" d="m244.12,279.64c1.82,9.36,2.42,18.25,1.79,26.68-.63,8.43-2.47,15.97-5.54,22.62-3.07,6.65-7.39,12.24-12.97,16.78-5.58,4.54-12.41,7.6-20.5,9.17-6.82,1.33-13.06,1.3-18.71-.07-5.66-1.37-10.8-3.83-15.44-7.37l11.79,60.66-34.38,6.68-34.63-178.18,31.88-6.2,3.64,12.38c3.04-5.53,6.94-10.11,11.71-13.76,4.76-3.64,10.75-6.16,17.97-7.57,8.17-1.59,15.69-1.42,22.56.49,6.87,1.92,12.97,5.34,18.29,10.27,5.32,4.93,9.85,11.21,13.6,18.84,3.74,7.62,6.57,16.31,8.46,26.07l.49,2.5Zm-34.86,4.18c-1.03-5.31-2.45-10.16-4.25-14.54-1.8-4.38-4.02-8.06-6.65-11.05-2.64-2.98-5.71-5.12-9.21-6.42-3.5-1.29-7.51-1.5-12.03-.62-5.63,1.09-10.04,3.04-13.24,5.85-3.2,2.8-5.4,6.42-6.59,10.85l10.24,52.69c2.75,3.58,6.15,6.15,10.2,7.71,4.05,1.56,8.96,1.77,14.75.65,4.52-.88,8.15-2.61,10.9-5.2,2.75-2.59,4.76-5.8,6.03-9.63,1.27-3.83,1.9-8.12,1.88-12.89-.02-4.77-.53-9.73-1.54-14.88l-.49-2.5Z"/>
            <path class="cls-6" d="m247.91,276.43c-1.82-9.36-2.16-18.3-1.02-26.84,1.14-8.53,3.72-16.21,7.74-23.04,4.02-6.83,9.49-12.64,16.42-17.45,6.92-4.8,15.22-8.14,24.9-10.02,9.75-1.9,18.76-1.92,27.02-.07,8.26,1.85,15.55,5.19,21.88,10,6.33,4.82,11.62,10.97,15.87,18.46,4.25,7.49,7.29,15.91,9.11,25.26l.49,2.5c1.83,9.44,2.18,18.4,1.03,26.89-1.15,8.49-3.75,16.16-7.81,23-4.06,6.84-9.54,12.64-16.43,17.39-6.89,4.76-15.22,8.08-24.97,9.98-9.75,1.9-18.74,1.93-26.95.12-8.21-1.82-15.48-5.14-21.81-9.96-6.33-4.82-11.61-10.95-15.86-18.4-4.25-7.45-7.28-15.88-9.12-25.32l-.49-2.5Zm34.86-4.18c1.02,5.23,2.45,10.06,4.29,14.47,1.84,4.42,4.14,8.1,6.9,11.06,2.76,2.96,6.01,5.11,9.77,6.43,3.75,1.33,8.09,1.51,13.01.56,4.76-.92,8.63-2.7,11.61-5.34,2.98-2.64,5.22-5.85,6.71-9.64,1.49-3.79,2.26-8.07,2.32-12.86.06-4.78-.42-9.79-1.44-15.03l-.49-2.5c-.99-5.07-2.4-9.8-4.24-14.18-1.84-4.37-4.16-8.08-6.97-11.11s-6.12-5.23-9.92-6.59c-3.8-1.36-8.12-1.57-12.96-.63-4.76.92-8.63,2.72-11.6,5.4-2.98,2.68-5.18,5.95-6.61,9.8-1.43,3.86-2.18,8.16-2.24,12.9-.07,4.75.4,9.66,1.38,14.73l.49,2.5Z"/>
            <path class="cls-6" d="m495.62,230.75c1.82,9.36,2.42,18.25,1.79,26.68-.63,8.43-2.47,15.97-5.54,22.62-3.07,6.65-7.39,12.24-12.97,16.78-5.58,4.54-12.41,7.6-20.5,9.17-6.82,1.33-13.06,1.3-18.71-.06-5.66-1.37-10.8-3.83-15.44-7.37l11.79,60.66-34.38,6.68-34.63-178.18,31.88-6.2,3.64,12.38c3.04-5.53,6.94-10.11,11.71-13.76,4.76-3.64,10.75-6.16,17.97-7.57,8.17-1.59,15.69-1.42,22.56.49,6.87,1.92,12.97,5.34,18.29,10.27,5.32,4.93,9.85,11.21,13.6,18.84,3.74,7.62,6.57,16.31,8.46,26.07l.49,2.5Zm-34.86,4.18c-1.03-5.31-2.45-10.16-4.25-14.54-1.8-4.38-4.02-8.06-6.65-11.05-2.64-2.99-5.71-5.12-9.21-6.42-3.5-1.29-7.51-1.5-12.03-.62-5.63,1.09-10.04,3.04-13.24,5.85-3.2,2.8-5.4,6.42-6.59,10.85l10.24,52.69c2.75,3.58,6.15,6.15,10.2,7.71s8.97,1.78,14.75.65c4.52-.88,8.15-2.61,10.9-5.21,2.75-2.59,4.76-5.8,6.03-9.63s1.9-8.12,1.88-12.89c-.02-4.77-.53-9.73-1.54-14.88l-.49-2.5Z"/>
          </g>
        </g>
      </g>
      <g class="cls-1">
        <path class="cls-4" d="m52.11,116.34c2.83-5.67,7.38-10.46,12.99-13.44.34-.18.91-.58.33-.84-.54-.24-1.55.09-2.03.35-6.08,3.23-11.08,8.24-14.15,14.41-.25.51,1,.39,1.18.36.52-.09,1.42-.3,1.69-.84h0Z"/>
      </g>
      <g class="cls-1">
        <path class="cls-4" d="m152.3,102.34c5.27-9,13.15-16.34,22.53-20.91.4-.2.84-.56.33-.86s-1.58.12-2.03.34c-9.86,4.8-18.15,12.43-23.69,21.9-.29.5,1.03.4,1.19.38.57-.09,1.37-.31,1.68-.85h0Z"/>
      </g>
      <g class="cls-1">
        <path class="cls-4" d="m331.69,66.93c5.27-9,13.15-16.34,22.53-20.91.4-.2.84-.56.33-.86s-1.58.12-2.03.34c-9.86,4.8-18.15,12.43-23.69,21.9-.29.5,1.03.4,1.19.38.57-.09,1.37-.31,1.68-.85h0Z"/>
      </g>
      <g class="cls-1">
        <path class="cls-4" d="m6.02,65.17c-.34-2.08-.73-4.15-1.02-6.24-.02-.14-.03-.2-.02-.37,0-.06.02-.14.02-.14.05-.1.03-.08-.06.05-.03.06-.07.1-.13.14-.11.09-.23.08-.02.03.1-.03.2-.05.3-.08.25-.07.51-.13.76-.2,1.05-.28,2.09-.55,3.14-.83.6-.16,1.36-.73,1.17-1.44s-1.14-.82-1.73-.66c-1.19.31-2.37.63-3.56.94-1.28.34-2.71.86-2.83,2.39-.04.53.08,1.09.17,1.61l.3,1.83.62,3.75c.12.71,1.19.82,1.73.66.65-.2,1.29-.69,1.17-1.44h0Z"/>
      </g>
      <g class="cls-1">
        <path class="cls-4" d="m259.31,15.55c-.34-2.08-.73-4.15-1.02-6.24-.02-.14-.03-.2-.02-.37,0-.06.02-.14.02-.14.05-.1.03-.08-.06.05-.03.06-.07.1-.13.14-.11.09-.23.08-.02.03.1-.03.2-.05.3-.08.25-.07.51-.13.76-.2,1.05-.28,2.09-.55,3.14-.83.6-.16,1.36-.73,1.17-1.44s-1.14-.82-1.73-.66c-1.19.31-2.37.63-3.56.94-1.28.34-2.71.86-2.83,2.39-.04.53.08,1.09.17,1.61l.3,1.83.62,3.75c.12.71,1.19.82,1.73.66.65-.2,1.29-.69,1.17-1.44h0Z"/>
      </g>
      <g class="cls-1">
        <path class="cls-4" d="m227.98,172.63c4.92-4.07,6.64-10.32,8.11-16.27.23-.93-2.66-.49-2.89.41-1.38,5.57-2.89,11.68-7.51,15.51-.46.38-.32.79.24.9.65.13,1.54-.13,2.05-.55h0Z"/>
      </g>
      <g class="cls-1">
        <path class="cls-4" d="m256.94,229.32c5.27-9,13.15-16.34,22.53-20.91.4-.2.84-.56.33-.86s-1.58.12-2.03.34c-9.86,4.8-18.15,12.43-23.69,21.9-.29.5,1.03.4,1.19.38.57-.09,1.37-.31,1.68-.85h0Z"/>
      </g>
      <g class="cls-1">
        <path class="cls-4" d="m332.62,299.61c4.92-4.07,6.64-10.32,8.11-16.27.23-.93-2.66-.49-2.89.41-1.38,5.57-2.89,11.68-7.51,15.51-.46.38-.32.79.24.9.65.13,1.54-.13,2.05-.55h0Z"/>
      </g>
      <g class="cls-1">
        <path class="cls-4" d="m407.02,137.35c4.92-4.07,6.64-10.32,8.11-16.27.23-.93-2.66-.49-2.89.41-1.38,5.57-2.89,11.68-7.51,15.51-.46.38-.32.79.24.9.65.13,1.54-.13,2.05-.55h0Z"/>
      </g>
      <g class="cls-1">
        <path class="cls-4" d="m121.49,244.53c-.09-2.19-.44-4.34-1.1-6.43l-1.21,1.27c.72-.25,1.45-.46,2.19-.62.17-.04.35-.07.52-.11.14-.03.15-.03,0,0,.09-.02.18-.03.26-.04.4-.06.79-.12,1.19-.16.59-.06,1.52-.4,1.62-1.09s-.81-.86-1.3-.81c-1.68.18-3.35.53-4.95,1.08-.47.16-1.43.59-1.21,1.27.61,1.92.99,3.93,1.08,5.94.03.67.7.88,1.3.81.38-.05.78-.16,1.09-.39.2-.15.54-.42.53-.7h0Z"/>
      </g>
      <g class="cls-1">
        <path class="cls-4" d="m157.54,238.63c3.9-4.88,8.88-8.77,14.56-11.35.54-.24,1.09-.89.69-1.47s-1.42-.45-1.97-.21c-6.1,2.77-11.52,6.97-15.71,12.2-.41.52-.27,1.15.37,1.38s1.61,0,2.05-.55h0Z"/>
      </g>
      <g class="cls-1">
        <path class="cls-4" d="m196.05,330.29c6.96-1.81,13.13-6.22,16.69-12.51.25-.45-1.02-.28-1.15-.26-.5.09-1.42.28-1.7.78-3.01,5.33-8.1,9.58-14.06,11.13-.26.07-1.45.39-1.33.82s1.36.09,1.56.04h0Z"/>
      </g>
      <g class="cls-1">
        <path class="cls-4" d="m372.96,195.93c-.09-2.19-.44-4.34-1.1-6.43l-1.21,1.27c.72-.25,1.45-.46,2.19-.62.17-.04.35-.07.52-.11.14-.03.15-.03,0,0,.09-.02.18-.03.26-.04.4-.06.79-.12,1.19-.16.59-.06,1.52-.4,1.62-1.09s-.81-.86-1.3-.81c-1.68.18-3.35.53-4.95,1.08-.47.16-1.43.59-1.21,1.27.61,1.92.99,3.93,1.08,5.94.03.67.7.88,1.3.81.38-.05.78-.16,1.09-.39.2-.15.54-.42.53-.7h0Z"/>
      </g>
      <g class="cls-1">
        <path class="cls-4" d="m409.01,190.03c3.9-4.88,8.88-8.77,14.56-11.35.54-.24,1.09-.89.69-1.47s-1.42-.45-1.97-.21c-6.1,2.77-11.52,6.97-15.71,12.2-.41.52-.27,1.15.37,1.38s1.61,0,2.05-.55h0Z"/>
      </g>
      <g class="cls-1">
        <path class="cls-4" d="m447.52,281.69c6.96-1.81,13.13-6.22,16.69-12.51.25-.45-1.02-.28-1.15-.26-.5.09-1.42.28-1.7.78-3.01,5.33-8.1,9.58-14.06,11.13-.26.07-1.45.39-1.33.82s1.36.09,1.56.04h0Z"/>
      </g>
    </g>
  </g>
</svg>
